<svg xmlns="http://www.w3.org/2000/svg" width="175" height="44" viewBox="0 0 175 44" fill="none"><defs><linearGradient id="gloss" x1="0" y1="0" x2="0" y2="1"><stop offset="0" stop-color="#ffffff" stop-opacity="0.10"/><stop offset="0.5" stop-color="#ffffff" stop-opacity="0.02"/><stop offset="1" stop-color="#ffffff" stop-opacity="0"/></linearGradient><linearGradient id="rim" x1="0" y1="0" x2="0" y2="1"><stop offset="0" stop-color="#0a0a14" stop-opacity="0.27"/><stop offset="1" stop-color="#0a0a14" stop-opacity="0.09"/></linearGradient><linearGradient id="accent" gradientUnits="userSpaceOnUse" x1="20" y1="0" x2="38" y2="0"><stop offset="0" stop-color="#6d4aff"/><stop offset="0.55" stop-color="#d94fb0"/><stop offset="1" stop-color="#2fb8d9"/></linearGradient><linearGradient id="shine" x1="0" y1="0" x2="0" y2="1"><stop offset="0" stop-color="#ffffff" stop-opacity="0.22"/><stop offset="0.5" stop-color="#ffffff" stop-opacity="0.04"/><stop offset="1" stop-color="#000000" stop-opacity="0.08"/></linearGradient></defs><rect x="1" y="1" width="173" height="42" rx="14" fill="#ffffff"/><rect x="1" y="1" width="173" height="42" rx="14" fill="url(#gloss)"/><rect x="1.5" y="1.5" width="172" height="41" rx="13.5" stroke="url(#rim)"/><g transform="translate(20 13.0)"><g transform="scale(0.45)"><rect x="38" y="0" width="1" height="1" fill="#6810b0" fill-opacity="0.13"/><rect x="39" y="0" width="1" height="1" fill="#6010b0" fill-opacity="0.13"/><rect x="37" y="1" width="1" height="1" fill="#7010c0" fill-opacity="0.25"/><rect x="38" y="1" width="1" height="1" fill="#6010a0" fill-opacity="0.50"/><rect x="36" y="2" width="1" height="1" fill="#8818d8" fill-opacity="0.38"/><rect x="37" y="2" width="1" height="1" fill="#6010a0" fill-opacity="0.88"/><rect x="38" y="2" width="1" height="1" fill="#400890" fill-opacity="0.13"/><rect x="33" y="3" width="1" height="1" fill="#c060e8" fill-opacity="0.13"/><rect x="35" y="3" width="1" height="1" fill="#d828f8" fill-opacity="0.38"/><rect x="36" y="3" width="1.06" height="1.06" fill="#7018a8"/><rect x="37" y="3" width="1" height="1" fill="#380088" fill-opacity="0.25"/><rect x="17" y="4" width="1" height="1" fill="#8028e0" fill-opacity="0.13"/><rect x="30" y="4" width="1" height="1" fill="#8048c0" fill-opacity="0.25"/><rect x="31" y="4" width="1" height="1" fill="#8860b8" fill-opacity="0.50"/><rect x="32" y="4" width="1" height="1" fill="#b870e8" fill-opacity="0.75"/><rect x="33" y="4" width="1" height="1" fill="#b050e0" fill-opacity="0.63"/><rect x="34" y="4" width="1" height="1" fill="#ff80ff" fill-opacity="0.38"/><rect x="35" y="4" width="1.06" height="1.06" fill="#a828d0"/><rect x="36" y="4" width="1" height="1" fill="#380080" fill-opacity="0.50"/><rect x="15" y="5" width="1" height="1" fill="#7818d8" fill-opacity="0.25"/><rect x="16" y="5" width="1" height="1" fill="#6818c8" fill-opacity="0.63"/><rect x="17" y="5" width="1" height="1" fill="#7828e0" fill-opacity="0.13"/><rect x="27" y="5" width="1" height="1" fill="#603098" fill-opacity="0.25"/><rect x="28" y="5" width="1" height="1" fill="#584090" fill-opacity="0.50"/><rect x="29" y="5" width="1" height="1" fill="#604080" fill-opacity="0.88"/><rect x="30" y="5" width="1.06" height="1.06" fill="#684888"/><rect x="31" y="5" width="1.06" height="1.06" fill="#9060c0"/><rect x="32" y="5" width="1" height="1" fill="#8030d0" fill-opacity="0.88"/><rect x="33" y="5" width="1" height="1" fill="#ff58ff" fill-opacity="0.50"/><rect x="34" y="5" width="1.06" height="1.06" fill="#c860e8"/><rect x="35" y="5" width="1" height="1" fill="#4808a0" fill-opacity="0.75"/><rect x="14" y="6" width="1" height="1" fill="#601098" fill-opacity="0.50"/><rect x="15" y="6" width="1.06" height="1.06" fill="#401080"/><rect x="16" y="6" width="1" height="1" fill="#3808a0" fill-opacity="0.25"/><rect x="23" y="6" width="1" height="1" fill="#8020e0" fill-opacity="0.13"/><rect x="24" y="6" width="1" height="1" fill="#502888" fill-opacity="0.38"/><rect x="25" y="6" width="1" height="1" fill="#483068" fill-opacity="0.63"/><rect x="26" y="6" width="1" height="1" fill="#403060" fill-opacity="0.88"/><rect x="27" y="6" width="1.06" height="1.06" fill="#403058"/><rect x="28" y="6" width="1.06" height="1.06" fill="#403048"/><rect x="29" y="6" width="1.06" height="1.06" fill="#403850"/><rect x="30" y="6" width="1.06" height="1.06" fill="#584078"/><rect x="31" y="6" width="1.06" height="1.06" fill="#5818a0"/><rect x="32" y="6" width="1" height="1" fill="#a810ff" fill-opacity="0.75"/><rect x="33" y="6" width="1.06" height="1.06" fill="#b020d8"/><rect x="34" y="6" width="1.06" height="1.06" fill="#400080"/><rect x="35" y="6" width="1" height="1" fill="#4000a8" fill-opacity="0.13"/><rect x="12" y="7" width="1" height="1" fill="#a808ff" fill-opacity="0.13"/><rect x="13" y="7" width="1" height="1" fill="#6010a8" fill-opacity="0.88"/><rect x="14" y="7" width="1.06" height="1.06" fill="#401080"/><rect x="15" y="7" width="1" height="1" fill="#100060" fill-opacity="0.38"/><rect x="20" y="7" width="1" height="1" fill="#9020f0" fill-opacity="0.13"/><rect x="21" y="7" width="1" height="1" fill="#581898" fill-opacity="0.38"/><rect x="22" y="7" width="1" height="1" fill="#402068" fill-opacity="0.75"/><rect x="23" y="7" width="1" height="1" fill="#302048" fill-opacity="0.88"/><rect x="24" y="7" width="1.06" height="1.06" fill="#302838"/><rect x="25" y="7" width="1.06" height="1.06" fill="#282030"/><rect x="26" y="7" width="1.06" height="1.06" fill="#202020"/><rect x="27" y="7" width="1.06" height="1.06" fill="#202028"/><rect x="28" y="7" width="1.06" height="1.06" fill="#303038"/><rect x="29" y="7" width="1.06" height="1.06" fill="#403050"/><rect x="30" y="7" width="1.06" height="1.06" fill="#280858"/><rect x="31" y="7" width="2.06" height="1.06" fill="#7810d0"/><rect x="33" y="7" width="1.06" height="1.06" fill="#200050"/><rect x="34" y="7" width="1" height="1" fill="#200858" fill-opacity="0.38"/><rect x="11" y="8" width="1" height="1" fill="#8820d0" fill-opacity="0.13"/><rect x="12" y="8" width="1" height="1" fill="#5810a8" fill-opacity="0.75"/><rect x="13" y="8" width="1" height="1" fill="#280070" fill-opacity="0.75"/><rect x="14" y="8" width="1" height="1" fill="#000050" fill-opacity="0.25"/><rect x="17" y="8" width="1" height="1" fill="#7010c0" fill-opacity="0.25"/><rect x="18" y="8" width="1" height="1" fill="#481080" fill-opacity="0.50"/><rect x="19" y="8" width="1" height="1" fill="#381060" fill-opacity="0.75"/><rect x="20" y="8" width="1.06" height="1.06" fill="#281040"/><rect x="21" y="8" width="1.06" height="1.06" fill="#181020"/><rect x="22" y="8" width="1.06" height="1.06" fill="#101010"/><rect x="23" y="8" width="1.06" height="1.06" fill="#181810"/><rect x="24" y="8" width="1.06" height="1.06" fill="#202020"/><rect x="25" y="8" width="1.06" height="1.06" fill="#302038"/><rect x="26" y="8" width="1.06" height="1.06" fill="#302840"/><rect x="27" y="8" width="2.06" height="1.06" fill="#383048"/><rect x="29" y="8" width="1.06" height="1.06" fill="#180828"/><rect x="30" y="8" width="1.06" height="1.06" fill="#481090"/><rect x="31" y="8" width="1.06" height="1.06" fill="#9028e8"/><rect x="32" y="8" width="1.06" height="1.06" fill="#300860"/><rect x="33" y="8" width="1" height="1" fill="#100030" fill-opacity="0.63"/><rect x="11" y="9" width="1" height="1" fill="#4800a8" fill-opacity="0.25"/><rect x="12" y="9" width="1" height="1" fill="#180098" fill-opacity="0.13"/><rect x="14" y="9" width="1" height="1" fill="#7020c0" fill-opacity="0.25"/><rect x="15" y="9" width="1" height="1" fill="#582088" fill-opacity="0.63"/><rect x="16" y="9" width="1" height="1" fill="#482868" fill-opacity="0.88"/><rect x="17" y="9" width="1.06" height="1.06" fill="#201030"/><rect x="18" y="9" width="1.06" height="1.06" fill="#101018"/><rect x="19" y="9" width="1.06" height="1.06" fill="#101010"/><rect x="20" y="9" width="1.06" height="1.06" fill="#101020"/><rect x="21" y="9" width="1.06" height="1.06" fill="#201838"/><rect x="22" y="9" width="1.06" height="1.06" fill="#281850"/><rect x="23" y="9" width="1.06" height="1.06" fill="#302050"/><rect x="24" y="9" width="1.06" height="1.06" fill="#302058"/><rect x="25" y="9" width="1.06" height="1.06" fill="#281850"/><rect x="26" y="9" width="1.06" height="1.06" fill="#180830"/><rect x="27" y="9" width="1.06" height="1.06" fill="#382848"/><rect x="28" y="9" width="1.06" height="1.06" fill="#201830"/><rect x="29" y="9" width="1.06" height="1.06" fill="#280860"/><rect x="30" y="9" width="1.06" height="1.06" fill="#5010a0"/><rect x="31" y="9" width="1.06" height="1.06" fill="#7820d8"/><rect x="32" y="9" width="1" height="1" fill="#280070" fill-opacity="0.88"/><rect x="10" y="10" width="1" height="1" fill="#603090" fill-opacity="0.13"/><rect x="11" y="10" width="1" height="1" fill="#b070e0" fill-opacity="0.38"/><rect x="12" y="10" width="1" height="1" fill="#8858b8" fill-opacity="0.63"/><rect x="13" y="10" width="1.06" height="1.06" fill="#584078"/><rect x="14" y="10" width="1.06" height="1.06" fill="#483858"/><rect x="15" y="10" width="1.06" height="1.06" fill="#383840"/><rect x="16" y="10" width="1.06" height="1.06" fill="#201820"/><rect x="17" y="10" width="1.06" height="1.06" fill="#100820"/><rect x="18" y="10" width="1.06" height="1.06" fill="#201048"/><rect x="19" y="10" width="1.06" height="1.06" fill="#301070"/><rect x="20" y="10" width="1.06" height="1.06" fill="#401088"/><rect x="21" y="10" width="1.06" height="1.06" fill="#381080"/><rect x="22" y="10" width="1.06" height="1.06" fill="#280858"/><rect x="23" y="10" width="1.06" height="1.06" fill="#200040"/><rect x="24" y="10" width="1.06" height="1.06" fill="#180030"/><rect x="25" y="10" width="1.06" height="1.06" fill="#100028"/><rect x="26" y="10" width="1.06" height="1.06" fill="#403058"/><rect x="27" y="10" width="1.06" height="1.06" fill="#383040"/><rect x="28" y="10" width="1.06" height="1.06" fill="#301050"/><rect x="29" y="10" width="1.06" height="1.06" fill="#401080"/><rect x="30" y="10" width="1.06" height="1.06" fill="#6818c0"/><rect x="31" y="10" width="1" height="1" fill="#3008a0" fill-opacity="0.75"/><rect x="32" y="10" width="1" height="1" fill="#000000" fill-opacity="0.13"/><rect x="10" y="11" width="1" height="1" fill="#503080" fill-opacity="0.13"/><rect x="11" y="11" width="1" height="1" fill="#604080" fill-opacity="0.88"/><rect x="12" y="11" width="1.06" height="1.06" fill="#7048a0"/><rect x="13" y="11" width="1.06" height="1.06" fill="#482070"/><rect x="14" y="11" width="1.06" height="1.06" fill="#301058"/><rect x="15" y="11" width="1.06" height="1.06" fill="#300860"/><rect x="16" y="11" width="1.06" height="1.06" fill="#400080"/><rect x="17" y="11" width="1.06" height="1.06" fill="#5008a0"/><rect x="18" y="11" width="1.06" height="1.06" fill="#4808a0"/><rect x="19" y="11" width="1.06" height="1.06" fill="#380878"/><rect x="20" y="11" width="1.06" height="1.06" fill="#200048"/><rect x="21" y="11" width="1.06" height="1.06" fill="#200040"/><rect x="22" y="11" width="1.06" height="1.06" fill="#300070"/><rect x="23" y="11" width="1.06" height="1.06" fill="#4000a0"/><rect x="24" y="11" width="1" height="1" fill="#4808a8" fill-opacity="0.88"/><rect x="25" y="11" width="1.06" height="1.06" fill="#7040b0"/><rect x="26" y="11" width="1.06" height="1.06" fill="#483858"/><rect x="27" y="11" width="1.06" height="1.06" fill="#282028"/><rect x="28" y="11" width="1.06" height="1.06" fill="#401080"/><rect x="29" y="11" width="1" height="1" fill="#481080" fill-opacity="0.88"/><rect x="30" y="11" width="1" height="1" fill="#5820a0" fill-opacity="0.38"/><rect x="32" y="11" width="1" height="1" fill="#8820e8" fill-opacity="0.38"/><rect x="33" y="11" width="1" height="1" fill="#8828d8" fill-opacity="0.25"/><rect x="10" y="12" width="1" height="1" fill="#601888" fill-opacity="0.25"/><rect x="11" y="12" width="1.06" height="1.06" fill="#201030"/><rect x="12" y="12" width="1.06" height="1.06" fill="#201040"/><rect x="13" y="12" width="1.06" height="1.06" fill="#7828c8"/><rect x="14" y="12" width="1.06" height="1.06" fill="#a830f0"/><rect x="15" y="12" width="1.06" height="1.06" fill="#8820d0"/><rect x="16" y="12" width="1.06" height="1.06" fill="#7020c0"/><rect x="17" y="12" width="1.06" height="1.06" fill="#381068"/><rect x="18" y="12" width="1.06" height="1.06" fill="#180830"/><rect x="19" y="12" width="1.06" height="1.06" fill="#180038"/><rect x="20" y="12" width="1.06" height="1.06" fill="#300078"/><rect x="21" y="12" width="1.06" height="1.06" fill="#5000c0"/><rect x="22" y="12" width="1" height="1" fill="#7008f0" fill-opacity="0.75"/><rect x="23" y="12" width="1" height="1" fill="#8008ff" fill-opacity="0.38"/><rect x="24" y="12" width="1" height="1" fill="#a860f8" fill-opacity="0.75"/><rect x="25" y="12" width="1.06" height="1.06" fill="#604880"/><rect x="26" y="12" width="1.06" height="1.06" fill="#202020"/><rect x="27" y="12" width="1.06" height="1.06" fill="#382050"/><rect x="28" y="12" width="1" height="1" fill="#400890" fill-opacity="0.63"/><rect x="29" y="12" width="1" height="1" fill="#100858" fill-opacity="0.13"/><rect x="30" y="12" width="1" height="1" fill="#7808ff" fill-opacity="0.13"/><rect x="31" y="12" width="1" height="1" fill="#6818c8" fill-opacity="0.75"/><rect x="32" y="12" width="1" height="1" fill="#5010a8" fill-opacity="0.63"/><rect x="9" y="13" width="1" height="1" fill="#8018d0" fill-opacity="0.13"/><rect x="10" y="13" width="1.06" height="1.06" fill="#502070"/><rect x="11" y="13" width="1.06" height="1.06" fill="#202028"/><rect x="12" y="13" width="1.06" height="1.06" fill="#282030"/><rect x="13" y="13" width="1.06" height="1.06" fill="#382850"/><rect x="14" y="13" width="1.06" height="1.06" fill="#502070"/><rect x="15" y="13" width="1.06" height="1.06" fill="#501090"/><rect x="16" y="13" width="1.06" height="1.06" fill="#200840"/><rect x="17" y="13" width="1.06" height="1.06" fill="#000010"/><rect x="18" y="13" width="1.06" height="1.06" fill="#200050"/><rect x="19" y="13" width="1" height="1" fill="#4000a0" fill-opacity="0.75"/><rect x="20" y="13" width="1" height="1" fill="#6008f0" fill-opacity="0.38"/><rect x="21" y="13" width="1" height="1" fill="#9010ff" fill-opacity="0.13"/><rect x="23" y="13" width="1" height="1" fill="#a070e0" fill-opacity="0.50"/><rect x="24" y="13" width="1.06" height="1.06" fill="#685090"/><rect x="25" y="13" width="1.06" height="1.06" fill="#282038"/><rect x="26" y="13" width="1" height="1" fill="#301050" fill-opacity="0.88"/><rect x="27" y="13" width="1" height="1" fill="#300068" fill-opacity="0.50"/><rect x="29" y="13" width="1" height="1" fill="#6010c0" fill-opacity="0.38"/><rect x="30" y="13" width="1.06" height="1.06" fill="#6018b0"/><rect x="31" y="13" width="1" height="1" fill="#280858" fill-opacity="0.88"/><rect x="9" y="14" width="1" height="1" fill="#7030b0" fill-opacity="0.88"/><rect x="10" y="14" width="1.06" height="1.06" fill="#402860"/><rect x="11" y="14" width="1.06" height="1.06" fill="#302838"/><rect x="12" y="14" width="1.06" height="1.06" fill="#201830"/><rect x="13" y="14" width="1.06" height="1.06" fill="#200050"/><rect x="14" y="14" width="1.06" height="1.06" fill="#5000b8"/><rect x="15" y="14" width="1.06" height="1.06" fill="#481098"/><rect x="16" y="14" width="1" height="1" fill="#100020" fill-opacity="0.88"/><rect x="17" y="14" width="1" height="1" fill="#200850" fill-opacity="0.38"/><rect x="18" y="14" width="1" height="1" fill="#4808c8" fill-opacity="0.13"/><rect x="22" y="14" width="1" height="1" fill="#8858d0" fill-opacity="0.63"/><rect x="23" y="14" width="1.06" height="1.06" fill="#7048a0"/><rect x="24" y="14" width="1" height="1" fill="#281840" fill-opacity="0.88"/><rect x="25" y="14" width="1" height="1" fill="#300860" fill-opacity="0.50"/><rect x="26" y="14" width="1" height="1" fill="#4000a8" fill-opacity="0.13"/><rect x="28" y="14" width="1" height="1" fill="#3000b0" fill-opacity="0.13"/><rect x="29" y="14" width="1.06" height="1.06" fill="#6010c8"/><rect x="30" y="14" width="1.06" height="1.06" fill="#280858"/><rect x="31" y="14" width="1" height="1" fill="#000010" fill-opacity="0.25"/><rect x="8" y="15" width="1" height="1" fill="#a048f0" fill-opacity="0.63"/><rect x="9" y="15" width="1.06" height="1.06" fill="#7830d0"/><rect x="10" y="15" width="1.06" height="1.06" fill="#301860"/><rect x="11" y="15" width="1.06" height="1.06" fill="#281050"/><rect x="12" y="15" width="1.06" height="1.06" fill="#5008a8"/><rect x="13" y="15" width="1.06" height="1.06" fill="#8818f8"/><rect x="14" y="15" width="1.06" height="1.06" fill="#a828ff"/><rect x="15" y="15" width="1.06" height="1.06" fill="#581890"/><rect x="16" y="15" width="1.06" height="1.06" fill="#200050"/><rect x="17" y="15" width="1" height="1" fill="#200050" fill-opacity="0.63"/><rect x="18" y="15" width="1" height="1" fill="#280078" fill-opacity="0.13"/><rect x="21" y="15" width="1" height="1" fill="#7040b0" fill-opacity="0.63"/><rect x="22" y="15" width="1" height="1" fill="#583890" fill-opacity="0.88"/><rect x="23" y="15" width="1" height="1" fill="#200838" fill-opacity="0.38"/><rect x="28" y="15" width="1" height="1" fill="#a018f8" fill-opacity="0.75"/><rect x="29" y="15" width="1.06" height="1.06" fill="#8020e0"/><rect x="30" y="15" width="1" height="1" fill="#180078" fill-opacity="0.38"/><rect x="7" y="16" width="1" height="1" fill="#e080ff" fill-opacity="0.50"/><rect x="8" y="16" width="1.06" height="1.06" fill="#a850e0"/><rect x="9" y="16" width="1.06" height="1.06" fill="#301058"/><rect x="10" y="16" width="1.06" height="1.06" fill="#201040"/><rect x="11" y="16" width="1.06" height="1.06" fill="#582098"/><rect x="12" y="16" width="1.06" height="1.06" fill="#8020d8"/><rect x="13" y="16" width="1.06" height="1.06" fill="#7010e0"/><rect x="14" y="16" width="1.06" height="1.06" fill="#4800b8"/><rect x="15" y="16" width="1.06" height="1.06" fill="#6008c0"/><rect x="16" y="16" width="1.06" height="1.06" fill="#6010b8"/><rect x="17" y="16" width="1.06" height="1.06" fill="#381070"/><rect x="18" y="16" width="1.06" height="1.06" fill="#200850"/><rect x="19" y="16" width="1" height="1" fill="#280068" fill-opacity="0.38"/><rect x="20" y="16" width="1" height="1" fill="#6028c0" fill-opacity="0.25"/><rect x="21" y="16" width="1" height="1" fill="#503078" fill-opacity="0.38"/><rect x="27" y="16" width="1" height="1" fill="#9828e8" fill-opacity="0.38"/><rect x="28" y="16" width="1" height="1" fill="#a838e0" fill-opacity="0.88"/><rect x="29" y="16" width="1" height="1" fill="#603090" fill-opacity="0.25"/><rect x="6" y="17" width="1" height="1" fill="#9850e8" fill-opacity="0.13"/><rect x="7" y="17" width="1.06" height="1.06" fill="#9058c0"/><rect x="8" y="17" width="1.06" height="1.06" fill="#483060"/><rect x="9" y="17" width="1.06" height="1.06" fill="#202020"/><rect x="10" y="17" width="1.06" height="1.06" fill="#201828"/><rect x="11" y="17" width="1.06" height="1.06" fill="#181020"/><rect x="12" y="17" width="1.06" height="1.06" fill="#101018"/><rect x="13" y="17" width="1.06" height="1.06" fill="#201038"/><rect x="14" y="17" width="1.06" height="1.06" fill="#281050"/><rect x="15" y="17" width="1.06" height="1.06" fill="#201048"/><rect x="16" y="17" width="1.06" height="1.06" fill="#401088"/><rect x="17" y="17" width="1.06" height="1.06" fill="#5818b8"/><rect x="18" y="17" width="1.06" height="1.06" fill="#5818b0"/><rect x="19" y="17" width="1.06" height="1.06" fill="#501098"/><rect x="20" y="17" width="1" height="1" fill="#481090" fill-opacity="0.88"/><rect x="21" y="17" width="1" height="1" fill="#5818d0" fill-opacity="0.25"/><rect x="27" y="17" width="1" height="1" fill="#7828c8" fill-opacity="0.50"/><rect x="28" y="17" width="1" height="1" fill="#201070" fill-opacity="0.13"/><rect x="7" y="18" width="1" height="1" fill="#000040" fill-opacity="0.13"/><rect x="8" y="18" width="1" height="1" fill="#281068" fill-opacity="0.63"/><rect x="9" y="18" width="1.06" height="1.06" fill="#301860"/><rect x="10" y="18" width="1.06" height="1.06" fill="#201830"/><rect x="11" y="18" width="1.06" height="1.06" fill="#101810"/><rect x="12" y="18" width="3.06" height="1.06" fill="#101010"/><rect x="15" y="18" width="1.06" height="1.06" fill="#202028"/><rect x="16" y="18" width="1.06" height="1.06" fill="#282040"/><rect x="17" y="18" width="1.06" height="1.06" fill="#482080"/><rect x="18" y="18" width="1.06" height="1.06" fill="#6818c8"/><rect x="19" y="18" width="1.06" height="1.06" fill="#9010f0"/><rect x="20" y="18" width="1.06" height="1.06" fill="#9818d0"/><rect x="21" y="18" width="1.06" height="1.06" fill="#8020b8"/><rect x="22" y="18" width="1" height="1" fill="#8030c8" fill-opacity="0.63"/><rect x="23" y="18" width="1" height="1" fill="#8020f0" fill-opacity="0.13"/><rect x="9" y="19" width="1" height="1" fill="#280090" fill-opacity="0.38"/><rect x="10" y="19" width="1" height="1" fill="#300898" fill-opacity="0.88"/><rect x="11" y="19" width="1.06" height="1.06" fill="#301080"/><rect x="12" y="19" width="1.06" height="1.06" fill="#201828"/><rect x="13" y="19" width="1.06" height="1.06" fill="#202028"/><rect x="14" y="19" width="2.06" height="1.06" fill="#202020"/><rect x="16" y="19" width="1.06" height="1.06" fill="#282828"/><rect x="17" y="19" width="1.06" height="1.06" fill="#303038"/><rect x="18" y="19" width="1.06" height="1.06" fill="#483858"/><rect x="19" y="19" width="1.06" height="1.06" fill="#503868"/><rect x="20" y="19" width="1.06" height="1.06" fill="#502870"/><rect x="21" y="19" width="1.06" height="1.06" fill="#7018b0"/><rect x="22" y="19" width="1.06" height="1.06" fill="#6018a0"/><rect x="23" y="19" width="1" height="1" fill="#7030a8" fill-opacity="0.88"/><rect x="24" y="19" width="1" height="1" fill="#e868ff" fill-opacity="0.50"/><rect x="11" y="20" width="1" height="1" fill="#4800e8" fill-opacity="0.50"/><rect x="12" y="20" width="1.06" height="1.06" fill="#4008a0"/><rect x="13" y="20" width="1.06" height="1.06" fill="#200840"/><rect x="14" y="20" width="1.06" height="1.06" fill="#301058"/><rect x="15" y="20" width="1.06" height="1.06" fill="#201828"/><rect x="16" y="20" width="1.06" height="1.06" fill="#101810"/><rect x="17" y="20" width="1.06" height="1.06" fill="#181818"/><rect x="18" y="20" width="1.06" height="1.06" fill="#202028"/><rect x="19" y="20" width="1.06" height="1.06" fill="#404050"/><rect x="20" y="20" width="1.06" height="1.06" fill="#8068a8"/><rect x="21" y="20" width="1.06" height="1.06" fill="#483078"/><rect x="22" y="20" width="1.06" height="1.06" fill="#300860"/><rect x="23" y="20" width="1.06" height="1.06" fill="#6820b8"/><rect x="24" y="20" width="1.06" height="1.06" fill="#a030f8"/><rect x="25" y="20" width="1" height="1" fill="#8018e0" fill-opacity="0.75"/><rect x="26" y="20" width="1" height="1" fill="#8818ff" fill-opacity="0.25"/><rect x="12" y="21" width="1" height="1" fill="#7010e0" fill-opacity="0.25"/><rect x="13" y="21" width="1" height="1" fill="#300868" fill-opacity="0.63"/><rect x="14" y="21" width="1" height="1" fill="#280060" fill-opacity="0.63"/><rect x="15" y="21" width="1.06" height="1.06" fill="#400890"/><rect x="16" y="21" width="1.06" height="1.06" fill="#300868"/><rect x="17" y="21" width="1.06" height="1.06" fill="#100820"/><rect x="18" y="21" width="1.06" height="1.06" fill="#101010"/><rect x="19" y="21" width="1.06" height="1.06" fill="#181030"/><rect x="20" y="21" width="1.06" height="1.06" fill="#201048"/><rect x="21" y="21" width="1.06" height="1.06" fill="#381070"/><rect x="22" y="21" width="1.06" height="1.06" fill="#401878"/><rect x="23" y="21" width="1.06" height="1.06" fill="#301850"/><rect x="24" y="21" width="1.06" height="1.06" fill="#584080"/><rect x="25" y="21" width="1.06" height="1.06" fill="#7858a8"/><rect x="26" y="21" width="1.06" height="1.06" fill="#5820a0"/><rect x="27" y="21" width="1" height="1" fill="#6818d0" fill-opacity="0.63"/><rect x="28" y="21" width="1" height="1" fill="#8820ff" fill-opacity="0.13"/><rect x="15" y="22" width="1" height="1" fill="#380090" fill-opacity="0.25"/><rect x="16" y="22" width="1" height="1" fill="#5000b0" fill-opacity="0.75"/><rect x="17" y="22" width="1.06" height="1.06" fill="#380880"/><rect x="18" y="22" width="1.06" height="1.06" fill="#200850"/><rect x="19" y="22" width="1.06" height="1.06" fill="#381068"/><rect x="20" y="22" width="1.06" height="1.06" fill="#7040b0"/><rect x="21" y="22" width="1.06" height="1.06" fill="#583890"/><rect x="22" y="22" width="1.06" height="1.06" fill="#302838"/><rect x="23" y="22" width="1.06" height="1.06" fill="#202028"/><rect x="24" y="22" width="1.06" height="1.06" fill="#101018"/><rect x="25" y="22" width="1.06" height="1.06" fill="#504858"/><rect x="26" y="22" width="1.06" height="1.06" fill="#585060"/><rect x="27" y="22" width="1.06" height="1.06" fill="#403060"/><rect x="28" y="22" width="1.06" height="1.06" fill="#502890"/><rect x="29" y="22" width="1" height="1" fill="#6028c0" fill-opacity="0.63"/><rect x="30" y="22" width="1" height="1" fill="#9828ff" fill-opacity="0.13"/><rect x="12" y="23" width="1" height="1" fill="#9828f0" fill-opacity="0.25"/><rect x="13" y="23" width="1" height="1" fill="#8020e8" fill-opacity="0.38"/><rect x="17" y="23" width="1" height="1" fill="#200050" fill-opacity="0.88"/><rect x="18" y="23" width="1.06" height="1.06" fill="#401878"/><rect x="19" y="23" width="1.06" height="1.06" fill="#a020f0"/><rect x="20" y="23" width="1.06" height="1.06" fill="#6010c8"/><rect x="21" y="23" width="1.06" height="1.06" fill="#381868"/><rect x="22" y="23" width="1.06" height="1.06" fill="#302048"/><rect x="23" y="23" width="1.06" height="1.06" fill="#302038"/><rect x="24" y="23" width="1.06" height="1.06" fill="#202028"/><rect x="25" y="23" width="1.06" height="1.06" fill="#101018"/><rect x="26" y="23" width="1.06" height="1.06" fill="#403848"/><rect x="27" y="23" width="1.06" height="1.06" fill="#383840"/><rect x="28" y="23" width="1.06" height="1.06" fill="#282828"/><rect x="29" y="23" width="1.06" height="1.06" fill="#383050"/><rect x="30" y="23" width="1" height="1" fill="#482880" fill-opacity="0.88"/><rect x="31" y="23" width="1" height="1" fill="#6828c8" fill-opacity="0.50"/><rect x="11" y="24" width="1" height="1" fill="#8010e8" fill-opacity="0.38"/><rect x="12" y="24" width="1" height="1" fill="#8018f0" fill-opacity="0.88"/><rect x="13" y="24" width="1" height="1" fill="#6818e8" fill-opacity="0.13"/><rect x="16" y="24" width="1" height="1" fill="#200058" fill-opacity="0.75"/><rect x="17" y="24" width="1" height="1" fill="#200850" fill-opacity="0.88"/><rect x="18" y="24" width="1" height="1" fill="#380890" fill-opacity="0.38"/><rect x="19" y="24" width="1" height="1" fill="#5810a0" fill-opacity="0.38"/><rect x="20" y="24" width="1" height="1" fill="#500898" fill-opacity="0.88"/><rect x="21" y="24" width="1.06" height="1.06" fill="#400090"/><rect x="22" y="24" width="1.06" height="1.06" fill="#300068"/><rect x="23" y="24" width="1.06" height="1.06" fill="#200840"/><rect x="24" y="24" width="1.06" height="1.06" fill="#181028"/><rect x="25" y="24" width="1.06" height="1.06" fill="#101018"/><rect x="26" y="24" width="1.06" height="1.06" fill="#181820"/><rect x="27" y="24" width="1.06" height="1.06" fill="#303038"/><rect x="28" y="24" width="1.06" height="1.06" fill="#282830"/><rect x="29" y="24" width="1.06" height="1.06" fill="#282048"/><rect x="30" y="24" width="1.06" height="1.06" fill="#402870"/><rect x="31" y="24" width="1.06" height="1.06" fill="#6838b0"/><rect x="32" y="24" width="1" height="1" fill="#583090" fill-opacity="0.88"/><rect x="10" y="25" width="1" height="1" fill="#6808b0" fill-opacity="0.50"/><rect x="11" y="25" width="1.06" height="1.06" fill="#7818f0"/><rect x="12" y="25" width="1" height="1" fill="#6008f0" fill-opacity="0.50"/><rect x="14" y="25" width="1" height="1" fill="#5008e0" fill-opacity="0.13"/><rect x="15" y="25" width="1" height="1" fill="#200078" fill-opacity="0.75"/><rect x="16" y="25" width="1" height="1" fill="#180050" fill-opacity="0.63"/><rect x="17" y="25" width="1" height="1" fill="#401088" fill-opacity="0.38"/><rect x="18" y="25" width="1" height="1" fill="#301070" fill-opacity="0.13"/><rect x="20" y="25" width="1" height="1" fill="#000000" fill-opacity="0.13"/><rect x="21" y="25" width="1" height="1" fill="#280858" fill-opacity="0.50"/><rect x="22" y="25" width="1.06" height="1.06" fill="#300870"/><rect x="23" y="25" width="1.06" height="1.06" fill="#380078"/><rect x="24" y="25" width="1.06" height="1.06" fill="#280060"/><rect x="25" y="25" width="1.06" height="1.06" fill="#200048"/><rect x="26" y="25" width="1.06" height="1.06" fill="#100020"/><rect x="27" y="25" width="1.06" height="1.06" fill="#281848"/><rect x="28" y="25" width="1.06" height="1.06" fill="#401098"/><rect x="29" y="25" width="1.06" height="1.06" fill="#301880"/><rect x="30" y="25" width="1.06" height="1.06" fill="#382860"/><rect x="31" y="25" width="1.06" height="1.06" fill="#282030"/><rect x="32" y="25" width="1" height="1" fill="#101010" fill-opacity="0.50"/><rect x="9" y="26" width="1" height="1" fill="#5800b0" fill-opacity="0.25"/><rect x="10" y="26" width="1.06" height="1.06" fill="#501090"/><rect x="11" y="26" width="1" height="1" fill="#380890" fill-opacity="0.75"/><rect x="13" y="26" width="1" height="1" fill="#4008b8" fill-opacity="0.13"/><rect x="14" y="26" width="1" height="1" fill="#200088" fill-opacity="0.75"/><rect x="15" y="26" width="1" height="1" fill="#300888" fill-opacity="0.50"/><rect x="16" y="26" width="1" height="1" fill="#6018c8" fill-opacity="0.63"/><rect x="17" y="26" width="1" height="1" fill="#401888" fill-opacity="0.38"/><rect x="22" y="26" width="1" height="1" fill="#080038" fill-opacity="0.13"/><rect x="23" y="26" width="1" height="1" fill="#280058" fill-opacity="0.63"/><rect x="24" y="26" width="1.06" height="1.06" fill="#300060"/><rect x="25" y="26" width="1.06" height="1.06" fill="#280068"/><rect x="26" y="26" width="1.06" height="1.06" fill="#401088"/><rect x="27" y="26" width="1.06" height="1.06" fill="#5808e0"/><rect x="28" y="26" width="1.06" height="1.06" fill="#301080"/><rect x="29" y="26" width="1.06" height="1.06" fill="#201820"/><rect x="30" y="26" width="1.06" height="1.06" fill="#181818"/><rect x="31" y="26" width="1" height="1" fill="#181020" fill-opacity="0.75"/><rect x="9" y="27" width="1" height="1" fill="#5010a8" fill-opacity="0.88"/><rect x="10" y="27" width="1" height="1" fill="#200850" fill-opacity="0.75"/><rect x="11" y="27" width="1" height="1" fill="#000008" fill-opacity="0.13"/><rect x="12" y="27" width="1" height="1" fill="#4010a0" fill-opacity="0.13"/><rect x="13" y="27" width="1" height="1" fill="#280090" fill-opacity="0.50"/><rect x="14" y="27" width="1" height="1" fill="#5010c0" fill-opacity="0.50"/><rect x="15" y="27" width="1" height="1" fill="#6018d8" fill-opacity="0.88"/><rect x="16" y="27" width="1" height="1" fill="#4010a0" fill-opacity="0.38"/><rect x="23" y="27" width="1" height="1" fill="#280070" fill-opacity="0.25"/><rect x="24" y="27" width="1" height="1" fill="#100038" fill-opacity="0.75"/><rect x="25" y="27" width="1.06" height="1.06" fill="#380858"/><rect x="26" y="27" width="1.06" height="1.06" fill="#9018f0"/><rect x="27" y="27" width="1.06" height="1.06" fill="#401888"/><rect x="28" y="27" width="2.06" height="1.06" fill="#101010"/><rect x="30" y="27" width="1" height="1" fill="#201038" fill-opacity="0.88"/><rect x="31" y="27" width="1" height="1" fill="#180058" fill-opacity="0.13"/><rect x="8" y="28" width="1" height="1" fill="#6018b8" fill-opacity="0.38"/><rect x="9" y="28" width="1" height="1" fill="#4010a0" fill-opacity="0.63"/><rect x="12" y="28" width="1" height="1" fill="#300088" fill-opacity="0.38"/><rect x="13" y="28" width="1" height="1" fill="#402078" fill-opacity="0.75"/><rect x="14" y="28" width="1.06" height="1.06" fill="#401870"/><rect x="15" y="28" width="1" height="1" fill="#180858" fill-opacity="0.50"/><rect x="19" y="28" width="1" height="1" fill="#3000a0" fill-opacity="0.13"/><rect x="20" y="28" width="1" height="1" fill="#280080" fill-opacity="0.38"/><rect x="21" y="28" width="1" height="1" fill="#180058" fill-opacity="0.63"/><rect x="22" y="28" width="1" height="1" fill="#180040" fill-opacity="0.88"/><rect x="23" y="28" width="1.06" height="1.06" fill="#180840"/><rect x="24" y="28" width="1.06" height="1.06" fill="#281048"/><rect x="25" y="28" width="1.06" height="1.06" fill="#8030c8"/><rect x="26" y="28" width="1.06" height="1.06" fill="#502880"/><rect x="27" y="28" width="1.06" height="1.06" fill="#000800"/><rect x="28" y="28" width="1.06" height="1.06" fill="#080800"/><rect x="29" y="28" width="1.06" height="1.06" fill="#201038"/><rect x="30" y="28" width="1" height="1" fill="#300080" fill-opacity="0.25"/><rect x="32" y="28" width="1" height="1" fill="#7018c0" fill-opacity="0.25"/><rect x="33" y="28" width="1" height="1" fill="#6810b0" fill-opacity="0.13"/><rect x="8" y="29" width="1" height="1" fill="#401090" fill-opacity="0.25"/><rect x="11" y="29" width="1" height="1" fill="#300870" fill-opacity="0.38"/><rect x="12" y="29" width="1" height="1" fill="#482870" fill-opacity="0.88"/><rect x="13" y="29" width="1.06" height="1.06" fill="#282030"/><rect x="14" y="29" width="1" height="1" fill="#000000" fill-opacity="0.50"/><rect x="16" y="29" width="1" height="1" fill="#3000c8" fill-opacity="0.13"/><rect x="17" y="29" width="1" height="1" fill="#4000e8" fill-opacity="0.38"/><rect x="18" y="29" width="1" height="1" fill="#3800c8" fill-opacity="0.75"/><rect x="19" y="29" width="1" height="1" fill="#300090" fill-opacity="0.88"/><rect x="20" y="29" width="1.06" height="1.06" fill="#280868"/><rect x="21" y="29" width="1.06" height="1.06" fill="#301850"/><rect x="22" y="29" width="1.06" height="1.06" fill="#302048"/><rect x="23" y="29" width="1.06" height="1.06" fill="#302040"/><rect x="24" y="29" width="1.06" height="1.06" fill="#302048"/><rect x="25" y="29" width="1.06" height="1.06" fill="#282048"/><rect x="26" y="29" width="1.06" height="1.06" fill="#403068"/><rect x="27" y="29" width="1.06" height="1.06" fill="#403058"/><rect x="28" y="29" width="1.06" height="1.06" fill="#201028"/><rect x="29" y="29" width="1" height="1" fill="#7010c0" fill-opacity="0.75"/><rect x="30" y="29" width="1" height="1" fill="#9820ff" fill-opacity="0.63"/><rect x="31" y="29" width="1" height="1" fill="#7018d8" fill-opacity="0.75"/><rect x="32" y="29" width="1" height="1" fill="#6018b0" fill-opacity="0.38"/><rect x="9" y="30" width="1" height="1" fill="#300860" fill-opacity="0.13"/><rect x="10" y="30" width="1" height="1" fill="#7818c0" fill-opacity="0.63"/><rect x="11" y="30" width="1.06" height="1.06" fill="#8838c8"/><rect x="12" y="30" width="1.06" height="1.06" fill="#281840"/><rect x="13" y="30" width="1" height="1" fill="#000010" fill-opacity="0.75"/><rect x="14" y="30" width="1" height="1" fill="#6000e0" fill-opacity="0.50"/><rect x="15" y="30" width="1" height="1" fill="#6000ff" fill-opacity="0.75"/><rect x="16" y="30" width="1.06" height="1.06" fill="#5008f0"/><rect x="17" y="30" width="1.06" height="1.06" fill="#4810c8"/><rect x="18" y="30" width="1.06" height="1.06" fill="#381888"/><rect x="19" y="30" width="1.06" height="1.06" fill="#302058"/><rect x="20" y="30" width="1.06" height="1.06" fill="#302840"/><rect x="21" y="30" width="1.06" height="1.06" fill="#282030"/><rect x="22" y="30" width="1.06" height="1.06" fill="#181820"/><rect x="23" y="30" width="1.06" height="1.06" fill="#181020"/><rect x="24" y="30" width="1.06" height="1.06" fill="#201840"/><rect x="25" y="30" width="1.06" height="1.06" fill="#382068"/><rect x="26" y="30" width="1.06" height="1.06" fill="#482890"/><rect x="27" y="30" width="1.06" height="1.06" fill="#6028c0"/><rect x="28" y="30" width="1.06" height="1.06" fill="#6820b8"/><rect x="29" y="30" width="1.06" height="1.06" fill="#8828e8"/><rect x="30" y="30" width="1" height="1" fill="#5818c8" fill-opacity="0.75"/><rect x="31" y="30" width="1" height="1" fill="#180888" fill-opacity="0.13"/><rect x="8" y="31" width="1" height="1" fill="#102048" fill-opacity="0.13"/><rect x="9" y="31" width="1" height="1" fill="#4808a8" fill-opacity="0.75"/><rect x="10" y="31" width="1.06" height="1.06" fill="#7818c0"/><rect x="11" y="31" width="1.06" height="1.06" fill="#401868"/><rect x="12" y="31" width="1" height="1" fill="#100038" fill-opacity="0.88"/><rect x="13" y="31" width="1" height="1" fill="#7020c0" fill-opacity="0.88"/><rect x="14" y="31" width="1.06" height="1.06" fill="#7018e0"/><rect x="15" y="31" width="1.06" height="1.06" fill="#5020a0"/><rect x="16" y="31" width="1.06" height="1.06" fill="#302058"/><rect x="17" y="31" width="1.06" height="1.06" fill="#202028"/><rect x="18" y="31" width="1.06" height="1.06" fill="#201820"/><rect x="19" y="31" width="1.06" height="1.06" fill="#181020"/><rect x="20" y="31" width="1.06" height="1.06" fill="#100818"/><rect x="21" y="31" width="1.06" height="1.06" fill="#180828"/><rect x="22" y="31" width="1.06" height="1.06" fill="#201040"/><rect x="23" y="31" width="1.06" height="1.06" fill="#301058"/><rect x="24" y="31" width="1.06" height="1.06" fill="#381078"/><rect x="25" y="31" width="1.06" height="1.06" fill="#400898"/><rect x="26" y="31" width="1.06" height="1.06" fill="#6010c0"/><rect x="27" y="31" width="1.06" height="1.06" fill="#8018e0"/><rect x="28" y="31" width="1" height="1" fill="#5818b0" fill-opacity="0.88"/><rect x="29" y="31" width="1" height="1" fill="#180078" fill-opacity="0.38"/><rect x="8" y="32" width="1" height="1" fill="#5810a8" fill-opacity="0.75"/><rect x="9" y="32" width="1.06" height="1.06" fill="#a810ff"/><rect x="10" y="32" width="1.06" height="1.06" fill="#400088"/><rect x="11" y="32" width="1.06" height="1.06" fill="#281058"/><rect x="12" y="32" width="1.06" height="1.06" fill="#8050b0"/><rect x="13" y="32" width="1.06" height="1.06" fill="#503070"/><rect x="14" y="32" width="1.06" height="1.06" fill="#282038"/><rect x="15" y="32" width="2.06" height="1.06" fill="#202020"/><rect x="17" y="32" width="1.06" height="1.06" fill="#202030"/><rect x="18" y="32" width="1.06" height="1.06" fill="#282030"/><rect x="19" y="32" width="1.06" height="1.06" fill="#302040"/><rect x="20" y="32" width="1.06" height="1.06" fill="#402070"/><rect x="21" y="32" width="1.06" height="1.06" fill="#281050"/><rect x="22" y="32" width="1.06" height="1.06" fill="#180038"/><rect x="23" y="32" width="1" height="1" fill="#200050" fill-opacity="0.88"/><rect x="24" y="32" width="1" height="1" fill="#300090" fill-opacity="0.63"/><rect x="25" y="32" width="1" height="1" fill="#5008d8" fill-opacity="0.63"/><rect x="26" y="32" width="1" height="1" fill="#9828ff" fill-opacity="0.25"/><rect x="27" y="32" width="1" height="1" fill="#7028b8" fill-opacity="0.38"/><rect x="28" y="32" width="1" height="1" fill="#000048" fill-opacity="0.13"/><rect x="7" y="33" width="1" height="1" fill="#6018c0" fill-opacity="0.75"/><rect x="8" y="33" width="1.06" height="1.06" fill="#a028d8"/><rect x="9" y="33" width="1.06" height="1.06" fill="#b020d8"/><rect x="10" y="33" width="1.06" height="1.06" fill="#583098"/><rect x="11" y="33" width="1.06" height="1.06" fill="#8858b0"/><rect x="12" y="33" width="1.06" height="1.06" fill="#302840"/><rect x="13" y="33" width="1.06" height="1.06" fill="#101008"/><rect x="14" y="33" width="1.06" height="1.06" fill="#181818"/><rect x="15" y="33" width="1.06" height="1.06" fill="#202020"/><rect x="16" y="33" width="1.06" height="1.06" fill="#282030"/><rect x="17" y="33" width="1.06" height="1.06" fill="#282040"/><rect x="18" y="33" width="1.06" height="1.06" fill="#281848"/><rect x="19" y="33" width="1" height="1" fill="#281068" fill-opacity="0.88"/><rect x="20" y="33" width="1" height="1" fill="#280860" fill-opacity="0.75"/><rect x="21" y="33" width="1" height="1" fill="#180030" fill-opacity="0.50"/><rect x="22" y="33" width="1" height="1" fill="#000020" fill-opacity="0.25"/><rect x="23" y="33" width="1" height="1" fill="#4808c0" fill-opacity="0.38"/><rect x="24" y="33" width="1" height="1" fill="#4808c0" fill-opacity="0.75"/><rect x="25" y="33" width="1" height="1" fill="#380888" fill-opacity="0.50"/><rect x="6" y="34" width="1" height="1" fill="#502090" fill-opacity="0.88"/><rect x="7" y="34" width="1.06" height="1.06" fill="#500890"/><rect x="8" y="34" width="1" height="1" fill="#d058f0" fill-opacity="0.75"/><rect x="9" y="34" width="1.06" height="1.06" fill="#a058d8"/><rect x="10" y="34" width="1.06" height="1.06" fill="#8860a8"/><rect x="11" y="34" width="1.06" height="1.06" fill="#302838"/><rect x="12" y="34" width="1.06" height="1.06" fill="#202028"/><rect x="13" y="34" width="1.06" height="1.06" fill="#282040"/><rect x="14" y="34" width="1.06" height="1.06" fill="#281850"/><rect x="15" y="34" width="1.06" height="1.06" fill="#281058"/><rect x="16" y="34" width="1" height="1" fill="#200858" fill-opacity="0.75"/><rect x="17" y="34" width="1" height="1" fill="#180060" fill-opacity="0.50"/><rect x="18" y="34" width="1" height="1" fill="#180068" fill-opacity="0.25"/><rect x="19" y="34" width="1" height="1" fill="#180080" fill-opacity="0.13"/><rect x="22" y="34" width="1" height="1" fill="#9818ff" fill-opacity="0.25"/><rect x="23" y="34" width="1.06" height="1.06" fill="#5010a0"/><rect x="24" y="34" width="1" height="1" fill="#200040" fill-opacity="0.63"/><rect x="5" y="35" width="1" height="1" fill="#401070" fill-opacity="0.88"/><rect x="6" y="35" width="1" height="1" fill="#280858" fill-opacity="0.75"/><rect x="7" y="35" width="1" height="1" fill="#601898" fill-opacity="0.25"/><rect x="8" y="35" width="1" height="1" fill="#b870f0" fill-opacity="0.88"/><rect x="9" y="35" width="1.06" height="1.06" fill="#9060b8"/><rect x="10" y="35" width="1.06" height="1.06" fill="#403068"/><rect x="11" y="35" width="1.06" height="1.06" fill="#382068"/><rect x="12" y="35" width="1" height="1" fill="#381080" fill-opacity="0.88"/><rect x="13" y="35" width="1" height="1" fill="#300888" fill-opacity="0.63"/><rect x="14" y="35" width="1" height="1" fill="#300098" fill-opacity="0.38"/><rect x="15" y="35" width="1" height="1" fill="#3000b0" fill-opacity="0.13"/><rect x="21" y="35" width="1" height="1" fill="#8018c8" fill-opacity="0.25"/><rect x="22" y="35" width="1" height="1" fill="#6818b8" fill-opacity="0.75"/><rect x="23" y="35" width="1" height="1" fill="#281060" fill-opacity="0.25"/><rect x="3" y="36" width="1" height="1" fill="#5010b0" fill-opacity="0.13"/><rect x="4" y="36" width="1" height="1" fill="#301068" fill-opacity="0.88"/><rect x="5" y="36" width="1" height="1" fill="#280848" fill-opacity="0.63"/><rect x="6" y="36" width="1" height="1" fill="#a060d8" fill-opacity="0.25"/><rect x="7" y="36" width="1" height="1" fill="#b070e0" fill-opacity="0.88"/><rect x="8" y="36" width="1" height="1" fill="#8850c0" fill-opacity="0.88"/><rect x="9" y="36" width="1" height="1" fill="#481890" fill-opacity="0.63"/><rect x="10" y="36" width="1" height="1" fill="#5008b0" fill-opacity="0.38"/><rect x="11" y="36" width="1" height="1" fill="#4800d8" fill-opacity="0.25"/><rect x="21" y="36" width="1" height="1" fill="#6810b0" fill-opacity="0.13"/><rect x="2" y="37" width="1" height="1" fill="#4810a8" fill-opacity="0.13"/><rect x="3" y="37" width="1" height="1" fill="#300868" fill-opacity="0.75"/><rect x="4" y="37" width="1" height="1" fill="#200840" fill-opacity="0.38"/><rect x="6" y="37" width="1" height="1" fill="#9048d0" fill-opacity="0.50"/><rect x="7" y="37" width="1" height="1" fill="#8038c8" fill-opacity="0.25"/><rect x="1" y="38" width="1" height="1" fill="#401080" fill-opacity="0.13"/><rect x="2" y="38" width="1" height="1" fill="#300870" fill-opacity="0.50"/><rect x="3" y="38" width="1" height="1" fill="#180848" fill-opacity="0.13"/><rect x="1" y="39" width="1" height="1" fill="#300870" fill-opacity="0.25"/></g></g><text x="101.0" y="27.5" font-family="Inter, 'Segoe UI', -apple-system, BlinkMacSystemFont, 'Helvetica Neue', Arial, sans-serif" font-size="15" font-weight="600" fill="#0b0b12" text-anchor="middle">Spectrum Cheat</text></svg>